HIERARCHY
ROOT Hips
{
	OFFSET 0.000000 71.427986 0.000000
	CHANNELS 6 Xposition Yposition Zposition Xrotation Yrotation Zrotation
	JOINT Pelvis
	{
		OFFSET 0.000000 0.000000 0.000000
		CHANNELS 3 Xrotation Yrotation Zrotation
		JOINT LeftUpLeg
		{
			OFFSET 6.797100 -2.508499 -1.318700
			CHANNELS 3 Xrotation Yrotation Zrotation
			JOINT LeftLeg
			{
				OFFSET 0.069008 -29.241863 0.690200
				CHANNELS 3 Xrotation Yrotation Zrotation
				JOINT LeftFoot
				{
					OFFSET -0.069008 -29.568123 -0.266800
					CHANNELS 3 Xrotation Yrotation Zrotation
					JOINT LeftToeBase
					{
						OFFSET 3.145500 -8.631000 16.059900
						CHANNELS 3 Xrotation Yrotation Zrotation
						End Site
						{
							OFFSET 0.000000 18.501587 0.000000
						}
					}
				}
			}
			JOINT Left_ShortSleeve
			{
				OFFSET 0.265923 -10.480953 1.153800
				CHANNELS 3 Xrotation Yrotation Zrotation
				End Site
				{
					OFFSET 1.725763 19.823879 0.000000
				}
			}
		}
		JOINT RightUpLeg
		{
			OFFSET -6.797100 -2.508499 -1.318700
			CHANNELS 3 Xrotation Yrotation Zrotation
			JOINT RightLeg
			{
				OFFSET -0.082453 -29.241932 0.688000
				CHANNELS 3 Xrotation Yrotation Zrotation
				JOINT RightFoot
				{
					OFFSET 0.082453 -29.568058 -0.264600
					CHANNELS 3 Xrotation Yrotation Zrotation
					JOINT RightToeBase
					{
						OFFSET -3.115300 -8.682800 16.113400
						CHANNELS 3 Xrotation Yrotation Zrotation
						End Site
						{
							OFFSET 0.000000 18.567114 0.000000
						}
					}
				}
			}
			JOINT Right_ShortSleeve
			{
				OFFSET -0.265923 -10.480953 1.153800
				CHANNELS 3 Xrotation Yrotation Zrotation
				End Site
				{
					OFFSET -1.725766 19.823910 0.000000
				}
			}
		}
	}
	JOINT Spine
	{
		OFFSET 0.000000 13.368103 0.470500
		CHANNELS 3 Xrotation Yrotation Zrotation
		JOINT Spine1
		{
			OFFSET 0.147000 13.837402 0.538800
			CHANNELS 3 Xrotation Yrotation Zrotation
			JOINT Spine2
			{
				OFFSET 0.168000 16.242897 -1.435500
				CHANNELS 3 Xrotation Yrotation Zrotation
				JOINT Neck
				{
					OFFSET 0.217200 18.631500 -1.679100
					CHANNELS 3 Xrotation Yrotation Zrotation
					JOINT Head
					{
						OFFSET 0.000000 6.599396 1.385900
						CHANNELS 3 Xrotation Yrotation Zrotation
						JOINT Hat
						{
							OFFSET -0.532200 27.220596 -10.096100
							CHANNELS 3 Xrotation Yrotation Zrotation
							End Site
							{
								OFFSET 0.000000 22.029861 0.000000
							}
						}
						JOINT HairD
						{
							OFFSET -10.777400 17.437393 -1.325900
							CHANNELS 3 Xrotation Yrotation Zrotation
							JOINT HairD1
							{
								OFFSET -3.290299 -11.051193 1.062200
								CHANNELS 3 Xrotation Yrotation Zrotation
								End Site
								{
									OFFSET 0.000000 11.579437 0.000000
								}
							}
						}
						JOINT HairB
						{
							OFFSET -10.777400 17.437393 1.467900
							CHANNELS 3 Xrotation Yrotation Zrotation
							JOINT HairB1
							{
								OFFSET -1.561200 -12.956299 3.590200
								CHANNELS 3 Xrotation Yrotation Zrotation
								End Site
								{
									OFFSET 0.000000 13.534866 0.000000
								}
							}
						}
						JOINT HairA
						{
							OFFSET 9.713100 17.437393 1.467900
							CHANNELS 3 Xrotation Yrotation Zrotation
							JOINT HairA1
							{
								OFFSET 1.561200 -12.956299 3.590200
								CHANNELS 3 Xrotation Yrotation Zrotation
								End Site
								{
									OFFSET 0.000000 13.534866 0.000000
								}
							}
						}
						JOINT HairC
						{
							OFFSET 9.713100 17.437393 -1.325900
							CHANNELS 3 Xrotation Yrotation Zrotation
							JOINT HairC1
							{
								OFFSET 3.290300 -11.051193 1.062200
								CHANNELS 3 Xrotation Yrotation Zrotation
								End Site
								{
									OFFSET 0.000000 11.579437 0.000000
								}
							}
						}
					}
				}
				JOINT LeftShoulder
				{
					OFFSET 5.101800 15.108002 -2.763700
					CHANNELS 3 Xrotation Yrotation Zrotation
					JOINT LeftArm
					{
						OFFSET 9.825497 2.506317 -1.597400
						CHANNELS 3 Xrotation Yrotation Zrotation
						JOINT LeftForeArm
						{
							OFFSET 21.966244 0.000000 0.000000
							CHANNELS 3 Xrotation Yrotation Zrotation
							JOINT LeftHand
							{
								OFFSET 33.879036 0.000000 0.000000
								CHANNELS 3 Xrotation Yrotation Zrotation
								JOINT LeftHandThumb1
								{
									OFFSET 6.715286 -2.359680 3.363841
									CHANNELS 3 Xrotation Yrotation Zrotation
									JOINT LeftHandThumb2
									{
										OFFSET 2.507072 -1.447464 1.447461
										CHANNELS 3 Xrotation Yrotation Zrotation
										JOINT LeftHandThumb3
										{
											OFFSET 2.898338 -1.673355 1.673357
											CHANNELS 3 Xrotation Yrotation Zrotation
											End Site
											{
												OFFSET -0.295959 3.727692 -0.131651
											}
										}
									}
								}
								JOINT LeftHandIndex1
								{
									OFFSET 14.190811 -0.254547 3.840278
									CHANNELS 3 Xrotation Yrotation Zrotation
									JOINT LeftHandIndex2
									{
										OFFSET 3.551727 0.000000 -0.000000
										CHANNELS 3 Xrotation Yrotation Zrotation
										JOINT LeftHandIndex3
										{
											OFFSET 2.894196 0.000000 0.000000
											CHANNELS 3 Xrotation Yrotation Zrotation
											End Site
											{
												OFFSET -1.000603 2.690872 0.366626
											}
										}
									}
								}
								JOINT LeftHandMiddle1
								{
									OFFSET 13.776489 0.000000 0.000000
									CHANNELS 3 Xrotation Yrotation Zrotation
									JOINT LeftHandMiddle2
									{
										OFFSET 3.438232 0.000000 0.000000
										CHANNELS 3 Xrotation Yrotation Zrotation
										JOINT LeftHandMiddle3
										{
											OFFSET 3.691551 0.000000 0.000000
											CHANNELS 3 Xrotation Yrotation Zrotation
											End Site
											{
												OFFSET -1.082298 3.499527 0.457670
											}
										}
									}
								}
								JOINT LeftHandRing1
								{
									OFFSET 13.966164 -0.268127 -3.067488
									CHANNELS 3 Xrotation Yrotation Zrotation
									JOINT LeftHandRing2
									{
										OFFSET 3.162567 0.000000 0.000000
										CHANNELS 3 Xrotation Yrotation Zrotation
										JOINT LeftHandRing3
										{
											OFFSET 3.324348 0.000000 0.000000
											CHANNELS 3 Xrotation Yrotation Zrotation
											End Site
											{
												OFFSET -0.861900 3.184998 0.405154
											}
										}
									}
								}
								JOINT LeftHandPinky1
								{
									OFFSET 13.131393 -0.168503 -5.746925
									CHANNELS 3 Xrotation Yrotation Zrotation
									JOINT LeftHandPinky2
									{
										OFFSET 2.849182 0.000000 0.000000
										CHANNELS 3 Xrotation Yrotation Zrotation
										JOINT LeftHandPinky3
										{
											OFFSET 2.805038 0.000000 0.000000
											CHANNELS 3 Xrotation Yrotation Zrotation
											End Site
											{
												OFFSET -0.882500 2.642609 0.325652
											}
										}
									}
								}
							}
							JOINT Left_Sleeve
							{
								OFFSET 6.592125 -0.646545 0.805568
								CHANNELS 3 Xrotation Yrotation Zrotation
								End Site
								{
									OFFSET -0.000179 20.275787 -0.000000
								}
							}
						}
					}
				}
				JOINT RightShoulder
				{
					OFFSET -5.731700 15.108002 -2.763700
					CHANNELS 3 Xrotation Yrotation Zrotation
					JOINT RightArm
					{
						OFFSET -9.825497 2.506317 -1.597400
						CHANNELS 3 Xrotation Yrotation Zrotation
						JOINT RightForeArm
						{
							OFFSET -21.966242 0.000000 0.000000
							CHANNELS 3 Xrotation Yrotation Zrotation
							JOINT RightHand
							{
								OFFSET -33.879032 0.000000 0.000000
								CHANNELS 3 Xrotation Yrotation Zrotation
								JOINT RightHandThumb1
								{
									OFFSET -6.715286 -2.359680 3.363841
									CHANNELS 3 Xrotation Yrotation Zrotation
									JOINT RightHandThumb2
									{
										OFFSET -2.507072 -1.447464 1.447461
										CHANNELS 3 Xrotation Yrotation Zrotation
										JOINT RightHandThumb3
										{
											OFFSET -2.898338 -1.673355 1.673357
											CHANNELS 3 Xrotation Yrotation Zrotation
											End Site
											{
												OFFSET 0.295959 3.727692 -0.131651
											}
										}
									}
								}
								JOINT RightHandIndex1
								{
									OFFSET -14.190811 -0.254547 3.840278
									CHANNELS 3 Xrotation Yrotation Zrotation
									JOINT RightHandIndex2
									{
										OFFSET -3.551727 0.000000 -0.000000
										CHANNELS 3 Xrotation Yrotation Zrotation
										JOINT RightHandIndex3
										{
											OFFSET -2.894196 0.000000 0.000000
											CHANNELS 3 Xrotation Yrotation Zrotation
											End Site
											{
												OFFSET 1.000603 2.690872 0.366626
											}
										}
									}
								}
								JOINT RightHandMiddle1
								{
									OFFSET -13.776489 0.000000 0.000000
									CHANNELS 3 Xrotation Yrotation Zrotation
									JOINT RightHandMiddle2
									{
										OFFSET -3.438232 0.000000 0.000000
										CHANNELS 3 Xrotation Yrotation Zrotation
										JOINT RightHandMiddle3
										{
											OFFSET -3.691551 0.000000 0.000000
											CHANNELS 3 Xrotation Yrotation Zrotation
											End Site
											{
												OFFSET 1.082298 3.499527 0.457670
											}
										}
									}
								}
								JOINT RightHandRing1
								{
									OFFSET -13.966164 -0.268127 -3.067488
									CHANNELS 3 Xrotation Yrotation Zrotation
									JOINT RightHandRing2
									{
										OFFSET -3.162567 0.000000 0.000000
										CHANNELS 3 Xrotation Yrotation Zrotation
										JOINT RightHandRing3
										{
											OFFSET -3.324348 0.000000 0.000000
											CHANNELS 3 Xrotation Yrotation Zrotation
											End Site
											{
												OFFSET 0.861900 3.184998 0.405154
											}
										}
									}
								}
								JOINT RightHandPinky1
								{
									OFFSET -13.131393 -0.168503 -5.746925
									CHANNELS 3 Xrotation Yrotation Zrotation
									JOINT RightHandPinky2
									{
										OFFSET -2.849182 0.000000 0.000000
										CHANNELS 3 Xrotation Yrotation Zrotation
										JOINT RightHandPinky3
										{
											OFFSET -2.805038 0.000000 0.000000
											CHANNELS 3 Xrotation Yrotation Zrotation
											End Site
											{
												OFFSET 0.882500 2.642609 0.325652
											}
										}
									}
								}
							}
							JOINT Right_Sleeve
							{
								OFFSET -6.592125 -0.646545 0.805568
								CHANNELS 3 Xrotation Yrotation Zrotation
								End Site
								{
									OFFSET 0.000179 20.275787 -0.000000
								}
							}
						}
					}
				}
				JOINT Bind_Right_JacketString
				{
					OFFSET -3.534800 11.969597 7.200700
					CHANNELS 3 Xrotation Yrotation Zrotation
					JOINT Bind_Right_JacketString1
					{
						OFFSET -0.319900 -6.102600 2.794100
						CHANNELS 3 Xrotation Yrotation Zrotation
						End Site
						{
							OFFSET 0.000000 6.719452 0.000000
						}
					}
				}
				JOINT Bind_Left_JacketString
				{
					OFFSET 2.904800 11.969597 7.200700
					CHANNELS 3 Xrotation Yrotation Zrotation
					JOINT Bind_Left_JacketString1
					{
						OFFSET 0.364800 -5.904503 3.186800
						CHANNELS 3 Xrotation Yrotation Zrotation
						End Site
						{
							OFFSET 0.000000 6.719513 0.000000
						}
					}
				}
				JOINT HairE
				{
					OFFSET 5.915200 17.612701 -11.592200
					CHANNELS 3 Xrotation Yrotation Zrotation
					JOINT HairE1
					{
						OFFSET 0.289200 -7.171898 -1.284500
						CHANNELS 3 Xrotation Yrotation Zrotation
						End Site
						{
							OFFSET 0.000000 7.291756 0.000000
						}
					}
				}
				JOINT HairF
				{
					OFFSET -0.864800 17.612701 -11.592200
					CHANNELS 3 Xrotation Yrotation Zrotation
					JOINT HairF1
					{
						OFFSET 0.000000 -14.087097 -2.127501
						CHANNELS 3 Xrotation Yrotation Zrotation
						End Site
						{
							OFFSET 0.000000 14.246841 0.000000
						}
					}
				}
				JOINT HairG
				{
					OFFSET -8.087700 17.612701 -11.592200
					CHANNELS 3 Xrotation Yrotation Zrotation
					JOINT HairG1
					{
						OFFSET -0.293600 -6.081398 -0.910100
						CHANNELS 3 Xrotation Yrotation Zrotation
						End Site
						{
							OFFSET 0.000000 6.156120 0.000000
						}
					}
				}
			}
		}
	}
	JOINT Pouch
	{
		OFFSET 0.000000 4.394501 10.847300
		CHANNELS 3 Xrotation Yrotation Zrotation
		End Site
		{
			OFFSET 0.000000 21.880577 0.000000
		}
	}
	JOINT Bag
	{
		OFFSET -13.229000 4.813004 -0.593300
		CHANNELS 3 Xrotation Yrotation Zrotation
		End Site
		{
			OFFSET 0.000000 21.880577 0.000000
		}
	}
	JOINT OccupyGuyFacialAnim_Joint
	{
		OFFSET 1.000000 -70.206398 -1.655000
		CHANNELS 3 Xrotation Yrotation Zrotation
		End Site
		{
			OFFSET 0.000000 21.880577 0.000000
		}
	}
}
MOTION
Frames: 5
Frame Time: 0.033333
2.790119 63.429054 56.860954 -16.995789 -2.831005 0.630882 0.000001 0.000000 -0.000000 -15.957733 11.450110 17.004043 57.661727 4.415672 0.764976 -21.359204 2.137438 -12.140116 0.000000 0.000000 -0.000000 0.000001 -0.000001 -0.000000 -19.555583 -10.508724 -20.669256 57.272188 0.348016 -10.296331 -15.800219 -2.975968 17.828665 0.000000 -0.000001 -0.000000 0.000003 -0.000000 0.000001 22.546656 4.781320 0.756436 7.784692 1.446021 2.936906 7.739059 1.616288 2.961097 -2.614196 0.237797 -1.170671 -17.182406 -0.831860 3.135130 -0.000000 -0.000000 -0.000000 -0.000000 -0.000000 -0.000000 -0.000000 -0.000000 0.000000 -0.000000 -0.000000 -0.000000 -0.000000 -0.000000 -0.000000 -0.000000 -0.000000 -0.000000 -0.000000 -0.000000 -0.000000 -0.000000 -0.000000 -0.000000 -0.000000 -0.000000 -0.000000 6.832093 -14.999101 4.845548 -34.662472 35.722723 -36.795592 0.000733 -93.724197 0.000746 -38.587225 -14.051349 0.260657 -1.566403 1.737346 6.554250 4.794387 18.437320 1.504426 0.000001 0.000001 -0.000002 0.040466 0.746911 -6.201696 0.075977 1.022153 -8.502015 -0.000002 0.000001 -0.000002 0.040251 0.744993 -6.185717 0.076280 1.024080 -8.517998 0.000004 -0.000001 0.000004 0.458825 4.744297 -5.736505 0.075965 1.022142 -8.502042 -0.000001 -0.000000 -0.000002 1.351118 14.385307 -4.693207 0.067110 -3.032827 -9.007138 -0.000002 0.000001 -0.000002 0.000002 -0.000002 -0.000001 5.835909 23.266454 6.899779 -47.218341 -14.555299 35.807987 -0.002848 87.568079 0.002864 -15.367366 -3.555065 -5.749081 -1.835539 -2.045977 -6.344864 5.354445 -16.475820 -0.749981 0.000000 -0.000001 0.000001 0.032627 -0.674176 5.540717 0.032721 -0.675049 5.548149 -0.000001 0.000001 0.000002 0.032626 -0.674173 5.540728 0.032719 -0.675062 5.548148 0.000001 0.000000 0.000001 0.404444 -4.675563 5.068152 0.032729 -0.675070 5.548133 0.000001 -0.000001 -0.000001 0.874719 -10.282224 4.443258 0.032712 -0.675052 5.548150 -0.000002 -0.000000 0.000000 0.000003 0.000002 -0.000000 0.000000 0.000000 -0.000001 0.000000 0.000000 -0.000001 0.000000 0.000000 -0.000001 0.000000 0.000000 -0.000001 0.000000 0.000000 -0.000001 0.000000 0.000000 -0.000001 0.000000 0.000000 -0.000001 0.000000 0.000000 -0.000001 0.000000 0.000000 -0.000001 0.000000 0.000000 -0.000001 0.000001 0.000000 -0.000000 0.000001 0.000000 -0.000000 0.000001 0.000000 -0.000000 
2.984482 63.595634 56.962536 -16.684477 -1.067297 0.560379 0.000000 -0.000000 -0.000000 -16.067928 10.352023 16.938574 57.147831 3.539538 0.226213 -21.503148 2.053203 -11.274003 -0.000000 0.000000 0.000000 0.000001 0.000000 0.000002 -18.473606 -11.433311 -20.266104 55.879827 -1.267255 -10.344096 -16.147315 -3.008342 17.871018 0.000000 -0.000000 0.000000 -0.000004 -0.000002 -0.000002 22.436169 5.122528 -0.221576 7.660069 1.596440 2.547145 7.613793 1.758544 2.570805 -0.110272 0.225847 -2.182191 -17.841415 -2.951930 5.544986 0.000000 -0.000000 0.000000 0.000000 -0.000000 0.000000 0.000000 -0.000000 0.000001 0.000000 -0.000000 0.000000 -0.000000 -0.000000 0.000000 0.000000 -0.000000 0.000000 -0.000000 -0.000000 0.000000 0.000000 -0.000000 0.000000 0.000000 -0.000000 0.000000 7.370059 -16.302709 4.036629 -38.567268 28.928836 -35.857035 0.034136 -89.826727 0.033337 -37.436349 -13.336111 -1.600094 -1.564112 1.661595 6.511662 4.801321 18.529250 1.510635 0.000000 0.000001 -0.000000 0.040713 0.749267 -6.221268 0.078112 1.036365 -8.621196 0.000004 0.000001 0.000000 0.040500 0.747349 -6.205293 0.078423 1.038272 -8.637167 0.000001 -0.000001 0.000000 0.460446 4.746510 -5.756170 0.078110 1.036358 -8.621194 0.000001 -0.000001 -0.000001 1.356157 14.387220 -4.713466 0.069366 -3.018608 -9.126150 -0.000001 -0.000001 0.000003 -0.000000 0.000001 0.000001 5.232366 22.621843 9.451539 -43.066047 -16.969388 36.206645 0.000730 85.677285 -0.000743 -15.575982 -3.927833 -5.809399 -1.835239 -1.989890 -6.336190 5.363918 -16.585605 -0.756983 -0.000000 -0.000001 0.000000 0.032505 -0.673079 5.532008 0.035589 -0.704177 5.788358 -0.000000 0.000001 0.000000 0.032491 -0.673078 5.532015 0.035609 -0.704187 5.788339 0.000002 0.000000 -0.000001 0.403732 -4.674538 5.059396 0.035599 -0.704180 5.788354 -0.000001 -0.000000 0.000001 0.873122 -10.281280 4.434358 0.035594 -0.704164 5.788359 -0.000001 -0.000000 -0.000001 -0.000002 -0.000000 0.000000 -0.000001 0.000000 -0.000000 0.000001 0.000000 0.000000 -0.000001 0.000000 -0.000000 -0.000001 0.000000 -0.000000 -0.000001 0.000000 -0.000000 0.000001 0.000000 0.000000 -0.000001 0.000000 -0.000000 -0.000001 0.000000 -0.000000 -0.000001 0.000000 -0.000000 0.000001 0.000000 0.000000 0.000000 -0.000000 -0.000000 0.000000 -0.000000 -0.000000 0.000000 -0.000000 -0.000000 
2.989666 63.872360 57.128819 -16.631437 0.869389 0.510542 0.000000 -0.000000 -0.000000 -15.758870 9.494155 16.869083 56.086033 2.532754 0.177127 -21.297459 1.964232 -10.700834 -0.000000 -0.000000 0.000000 -0.000004 0.000000 0.000001 -16.571209 -12.626163 -19.662605 53.829687 -2.594784 -10.360220 -16.535502 -3.123576 18.152925 0.000000 0.000001 0.000000 0.000000 0.000002 -0.000000 22.208116 5.299900 -0.884162 7.608900 1.675953 2.278162 7.563523 1.832798 2.301303 2.217524 0.322440 -3.658289 -16.615823 -4.288623 6.747527 0.000000 0.000001 -0.000000 0.000000 0.000001 -0.000000 0.000000 0.000001 0.000000 0.000000 0.000001 -0.000000 0.000000 0.000001 -0.000000 0.000000 0.000001 -0.000000 0.000000 0.000001 -0.000000 0.000000 0.000001 -0.000000 0.000000 0.000001 -0.000000 7.866629 -17.514215 3.322096 -40.926825 23.405827 -36.263643 0.000361 -87.286983 0.000169 -39.269377 -15.068978 -3.850789 -1.561868 1.585982 6.469209 4.808213 18.620969 1.516852 -0.000001 0.000002 0.000002 0.040963 0.751582 -6.240809 0.080269 1.050574 -8.740098 0.000002 -0.000000 -0.000000 0.040760 0.749673 -6.224818 0.080583 1.052487 -8.756079 0.000001 0.000002 -0.000001 0.462059 4.748692 -5.775779 0.080275 1.050547 -8.740114 -0.000002 -0.000002 -0.000000 1.361186 14.389095 -4.733671 0.071668 -3.004483 -9.244906 -0.000003 0.000000 -0.000002 -0.000001 0.000001 0.000002 5.149253 22.717120 10.023893 -38.690249 -19.377224 36.770030 0.000287 83.511828 -0.000319 -15.916364 -4.212330 -5.845995 -1.834956 -1.933932 -6.327557 5.373344 -16.695132 -0.764000 -0.000001 -0.000001 0.000003 0.032414 -0.672030 5.523274 0.038587 -0.733233 6.028043 -0.000001 0.000001 0.000000 0.032415 -0.672035 5.523269 0.038597 -0.733227 6.028048 0.000002 -0.000000 0.000001 0.403036 -4.673539 5.050613 0.038614 -0.733249 6.028025 -0.000000 -0.000002 -0.000000 0.871550 -10.280347 4.425474 0.038616 -0.733219 6.028043 0.000000 -0.000001 0.000000 0.000003 -0.000000 0.000000 -0.000001 -0.000000 0.000000 -0.000001 -0.000000 0.000000 -0.000001 -0.000000 0.000000 -0.000001 -0.000000 0.000000 -0.000001 -0.000000 0.000000 -0.000001 -0.000000 0.000000 -0.000001 -0.000000 0.000000 -0.000001 -0.000000 0.000000 -0.000001 -0.000000 0.000000 -0.000001 -0.000000 0.000000 0.000000 -0.000000 -0.000000 0.000000 -0.000000 -0.000000 0.000000 -0.000000 -0.000000 
2.890344 64.189186 57.398731 -17.050690 2.463618 0.550628 0.000000 0.000000 -0.000000 -14.831925 9.412351 16.638223 54.727427 1.590196 0.944654 -21.014858 1.936978 -10.589396 -0.000000 0.000002 -0.000000 0.000002 0.000001 0.000001 -14.312826 -13.937291 -19.205377 51.833093 -3.368300 -10.371297 -16.785806 -3.253250 18.441818 0.000000 0.000000 0.000000 -0.000002 0.000000 0.000001 22.081916 5.646623 -1.389351 7.751838 1.796688 2.028765 7.706682 1.950392 2.051917 3.930181 0.393472 -5.119684 -14.158322 -5.005660 6.686022 -0.000000 0.000000 0.000000 -0.000000 0.000000 0.000000 -0.000000 0.000000 0.000000 -0.000000 0.000000 -0.000000 -0.000001 -0.000000 0.000000 -0.000000 0.000000 -0.000000 -0.000001 -0.000000 0.000000 -0.000000 0.000000 0.000000 -0.000000 0.000000 0.000000 8.469589 -18.860645 2.909930 -42.091577 19.460976 -37.401440 0.000372 -86.124171 0.000504 -41.138212 -16.984865 -5.413889 -1.559642 1.510644 6.426948 4.815021 18.712358 1.523101 -0.000000 -0.000001 0.000002 0.041233 0.753944 -6.260238 0.082475 1.064682 -8.858544 0.000004 -0.000000 -0.000002 0.041007 0.752027 -6.244251 0.082763 1.066577 -8.874543 0.000001 0.000004 -0.000001 0.463684 4.750902 -5.795308 0.082484 1.064672 -8.858544 -0.000001 -0.000001 0.000001 1.366176 14.390976 -4.753802 0.073999 -2.990347 -9.363196 -0.000001 0.000001 -0.000001 0.000002 0.000000 0.000001 5.333914 22.957517 9.246086 -34.340327 -21.601643 37.606038 -0.000004 82.084708 -0.000004 -16.267183 -4.186917 -5.800665 -1.834684 -1.878184 -6.318992 5.382646 -16.804280 -0.771000 0.000001 -0.000001 0.000002 0.032318 -0.670972 5.514586 0.041723 -0.762149 6.266813 -0.000000 0.000000 0.000000 0.032321 -0.670981 5.514590 0.041726 -0.762141 6.266802 0.000000 0.000001 -0.000001 0.402332 -4.672536 5.041883 0.041719 -0.762132 6.266824 0.000001 0.000003 -0.000001 0.869973 -10.279423 4.416633 0.041731 -0.762162 6.266789 0.000000 0.000001 -0.000001 -0.000000 -0.000000 0.000000 0.000002 0.000001 -0.000001 0.000003 0.000000 -0.000001 0.000002 0.000001 -0.000000 0.000002 0.000001 -0.000000 0.000002 0.000001 -0.000001 0.000003 0.000000 -0.000001 0.000002 0.000001 -0.000000 0.000002 0.000001 -0.000000 0.000002 0.000001 -0.000001 0.000003 0.000000 -0.000001 0.000000 0.000000 -0.000000 0.000000 0.000000 -0.000000 0.000000 0.000000 -0.000000 
2.742652 64.501534 57.768726 -17.904619 3.276896 0.679413 0.000000 0.000000 0.000000 -13.114012 9.707123 16.351679 53.269001 1.136904 1.744306 -20.806886 1.992771 -10.845454 0.000000 0.000000 -0.000000 0.000000 0.000001 0.000001 -12.290653 -15.329403 -19.158617 50.445612 -3.393040 -10.389012 -16.936846 -3.268332 18.344042 0.000000 0.000002 -0.000000 0.000001 -0.000002 0.000001 21.966512 6.442573 -1.897664 7.883217 2.055927 1.694977 7.836202 2.201529 1.719590 5.450581 0.382419 -6.260320 -10.762944 -5.445426 5.684232 0.000000 -0.000000 -0.000000 0.000000 -0.000000 -0.000000 0.000000 -0.000000 -0.000000 0.000000 -0.000000 -0.000000 0.000000 -0.000000 -0.000000 0.000000 -0.000000 -0.000000 0.000000 -0.000000 -0.000000 0.000000 -0.000000 -0.000000 0.000000 -0.000000 -0.000000 8.793710 -19.863356 1.823467 -42.151529 15.510130 -38.640945 0.000193 -85.868783 0.000168 -40.379129 -16.737602 -5.262702 -1.557494 1.435699 6.384939 4.821807 18.803236 1.529299 0.000000 -0.000002 0.000001 0.041508 0.756270 -6.279609 0.084667 1.078697 -8.976344 0.000002 -0.000001 -0.000002 0.041276 0.754338 -6.263625 0.084990 1.080618 -8.992328 0.000001 0.000002 0.000001 0.465295 4.753078 -5.814727 0.084677 1.078717 -8.976334 -0.000001 0.000002 0.000002 1.371157 14.392853 -4.773833 0.076302 -2.976340 -9.480832 0.000002 -0.000002 0.000001 -0.000003 0.000001 -0.000000 5.404006 22.656340 8.440045 -30.359402 -23.070321 38.560506 0.000003 81.084775 0.000027 -16.700108 -4.001862 -5.720092 -1.834429 -1.822753 -6.310464 5.391847 -16.912783 -0.778044 -0.000000 -0.000001 0.000002 0.032218 -0.669928 5.505937 0.044946 -0.790907 6.504255 -0.000001 -0.000001 0.000002 0.032221 -0.669930 5.505939 0.044947 -0.790911 6.504262 0.000002 -0.000002 0.000002 0.401614 -4.671554 5.033234 0.044945 -0.790895 6.504227 0.000000 0.000000 -0.000001 0.868408 -10.278490 4.407840 0.044939 -0.790908 6.504256 -0.000004 0.000001 -0.000001 0.000001 0.000001 -0.000000 -0.000000 0.000000 -0.000000 -0.000000 0.000000 -0.000000 -0.000000 0.000000 -0.000000 -0.000000 0.000000 -0.000000 -0.000000 0.000000 -0.000000 -0.000000 0.000000 -0.000000 -0.000000 0.000000 -0.000000 -0.000000 0.000000 -0.000000 -0.000000 0.000000 -0.000000 -0.000000 0.000000 -0.000000 0.000000 0.000000 0.000000 0.000000 0.000000 0.000000 0.000000 0.000000 0.000000 
